<svg xmlns="http://www.w3.org/2000/svg" width="512" height="512" viewBox="0 0 512 512" fill="none">
  <defs>
    <linearGradient id="bg" x1="64" y1="48" x2="448" y2="464" gradientUnits="userSpaceOnUse">
      <stop stop-color="#FFFFFF"/>
      <stop offset="1" stop-color="#F0F9FF"/>
    </linearGradient>
    <linearGradient id="b" x1="130" y1="128" x2="390" y2="390" gradientUnits="userSpaceOnUse">
      <stop stop-color="#38BDF8"/>
      <stop offset="1" stop-color="#2563EB"/>
    </linearGradient>
    <filter id="s" x="8" y="8" width="496" height="496" filterUnits="userSpaceOnUse" color-interpolation-filters="sRGB">
      <feDropShadow dx="0" dy="18" stdDeviation="22" flood-color="#2563EB" flood-opacity="0.16"/>
    </filter>
  </defs>
  <rect x="38" y="38" width="436" height="436" rx="112" fill="url(#bg)" filter="url(#s)"/>
  <rect x="62" y="62" width="388" height="388" rx="92" stroke="#2563EB" stroke-opacity="0.16" stroke-width="4"/>
  <path d="M132 354H382" stroke="#BAE6FD" stroke-width="18" stroke-linecap="round"/>
  <path d="M154 318L212 260L256 292L346 190" stroke="url(#b)" stroke-width="24" stroke-linecap="round" stroke-linejoin="round"/>
  <path d="M332 190H374V232" stroke="#2563EB" stroke-width="18" stroke-linecap="round" stroke-linejoin="round"/>
  <rect x="142" y="144" width="86" height="58" rx="18" fill="#EFF6FF" stroke="#2563EB" stroke-width="12"/>
  <rect x="252" y="144" width="118" height="58" rx="18" fill="#EFF6FF" stroke="#2563EB" stroke-width="12"/>
  <path d="M172 174H198M280 174H342" stroke="#0EA5E9" stroke-width="10" stroke-linecap="round"/>
  <circle cx="206" cy="260" r="16" fill="#FFFFFF" stroke="#2563EB" stroke-width="10"/>
  <circle cx="256" cy="292" r="16" fill="#FFFFFF" stroke="#2563EB" stroke-width="10"/>
  <circle cx="346" cy="190" r="16" fill="#FFFFFF" stroke="#2563EB" stroke-width="10"/>
  <path d="M156 402H286" stroke="#BAE6FD" stroke-width="16" stroke-linecap="round"/>
</svg>
