<svg xmlns="http://www.w3.org/2000/svg" width="512" height="512" viewBox="0 0 512 512" fill="none"><defs><linearGradient id="bg" x1="64" y1="48" x2="448" y2="464"><stop stop-color="#FFFFFF"/><stop offset="1" stop-color="#F0F9FF"/></linearGradient><linearGradient id="b" x1="132" y1="124" x2="384" y2="390"><stop stop-color="#38BDF8"/><stop offset="1" stop-color="#2563EB"/></linearGradient><filter id="s"><feDropShadow dx="0" dy="18" stdDeviation="22" flood-color="#2563EB" flood-opacity="0.16"/></filter></defs><rect x="38" y="38" width="436" height="436" rx="112" fill="url(#bg)" filter="url(#s)"/><rect x="62" y="62" width="388" height="388" rx="92" stroke="#2563EB" stroke-opacity="0.16" stroke-width="4"/><path d="M134 352V214L190 240V202L250 232V194L332 236V352H134Z" fill="#EFF6FF" stroke="#2563EB" stroke-width="16" stroke-linejoin="round"/><path d="M166 352V306H206V352M238 352V306H278V352M310 352V286H350V352" stroke="#0EA5E9" stroke-width="13" stroke-linecap="round"/><path d="M134 386H314" stroke="#BAE6FD" stroke-width="18" stroke-linecap="round"/><circle cx="364" cy="158" r="58" fill="url(#b)"/><path d="M344 136H370C382 136 390 143 390 154C390 163 385 169 376 172C386 174 392 181 392 191C392 203 383 210 370 210H344V136Z" fill="#FFFFFF"/><path d="M362 151V166H369C374 166 378 163 378 158C378 154 374 151 369 151H362ZM362 180V195H371C376 195 380 192 380 187C380 183 376 180 371 180H362Z" fill="#2563EB"/><path d="M188 164H274M188 136H318" stroke="#2563EB" stroke-width="14" stroke-linecap="round" stroke-opacity="0.72"/><path d="M182 420H340" stroke="#2563EB" stroke-width="10" stroke-linecap="round" stroke-opacity="0.20"/><path d="M122 122L146 98M390 390L414 414" stroke="#38BDF8" stroke-width="10" stroke-linecap="round" stroke-opacity="0.75"/></svg>
