<svg xmlns="http://www.w3.org/2000/svg" width="512" height="512" viewBox="0 0 512 512" fill="none"><defs><linearGradient id="bg" x1="64" y1="48" x2="448" y2="464"><stop stop-color="#FFFFFF"/><stop offset="1" stop-color="#F0F9FF"/></linearGradient><linearGradient id="b" x1="124" y1="138" x2="390" y2="380"><stop stop-color="#38BDF8"/><stop offset="1" stop-color="#2563EB"/></linearGradient><filter id="s"><feDropShadow dx="0" dy="18" stdDeviation="22" flood-color="#2563EB" flood-opacity="0.16"/></filter></defs><rect x="38" y="38" width="436" height="436" rx="112" fill="url(#bg)" filter="url(#s)"/><rect x="62" y="62" width="388" height="388" rx="92" stroke="#2563EB" stroke-opacity="0.16" stroke-width="4"/><path d="M132 346V226L194 256V216L256 248V206L332 244V346H132Z" fill="#EFF6FF" stroke="#2563EB" stroke-width="16" stroke-linejoin="round"/><path d="M168 346V302H214V346M250 346V302H296V346" stroke="#0EA5E9" stroke-width="14" stroke-linecap="round"/><circle cx="352" cy="166" r="46" fill="url(#b)"/><circle cx="352" cy="166" r="16" fill="#FFFFFF"/><path d="M352 120V96M352 236V212M306 166H282M422 166H398M320 134L302 116M402 216L384 198M402 116L384 134M320 198L302 216" stroke="#2563EB" stroke-width="10" stroke-linecap="round"/><path d="M132 382H316" stroke="#BAE6FD" stroke-width="18" stroke-linecap="round"/></svg>