<svg xmlns="http://www.w3.org/2000/svg" viewBox="0 0 256 256" role="img" aria-label="Multiagent Systems CS - MA purple white icon">
  <defs>
    <linearGradient id="b" x1="0" y1="0" x2="1" y2="1"><stop stop-color="#fff"/><stop offset="1" stop-color="#eadcff"/></linearGradient>
    <linearGradient id="p" x1="44" y1="42" x2="214" y2="218"><stop stop-color="#c084fc"/><stop offset="1" stop-color="#5b21b6"/></linearGradient>
    <filter id="s"><feDropShadow dx="0" dy="10" stdDeviation="12" flood-color="#4c1d95" flood-opacity=".20"/></filter>
  </defs>
  <rect width="256" height="256" rx="56" fill="url(#b)"/>
  <circle cx="69" cy="185" r="28" fill="#d8b4fe" opacity=".30"/>
  <circle cx="218" cy="74" r="24" fill="#fff" opacity=".72"/>
  <g filter="url(#s)">
    <rect x="42" y="42" width="172" height="172" rx="40" fill="#fff"/>
    <path d="M128 126L82 91" stroke="#c084fc" stroke-width="8" stroke-linecap="round"/><path d="M128 126L128 78" stroke="#c084fc" stroke-width="8" stroke-linecap="round"/><path d="M128 126L174 92" stroke="#c084fc" stroke-width="8" stroke-linecap="round"/><path d="M128 126L93 151" stroke="#c084fc" stroke-width="8" stroke-linecap="round"/><path d="M128 126L163 154" stroke="#c084fc" stroke-width="8" stroke-linecap="round"/><rect x="67" y="76" width="30" height="30" rx="9" fill="url(#p)"/><rect x="113" y="63" width="30" height="30" rx="9" fill="url(#p)"/><rect x="159" y="77" width="30" height="30" rx="9" fill="url(#p)"/><rect x="78" y="136" width="30" height="30" rx="9" fill="url(#p)"/><rect x="148" y="139" width="30" height="30" rx="9" fill="url(#p)"/><rect x="113" y="111" width="30" height="30" rx="9" fill="url(#p)"/>
    <rect x="80" y="180" width="96" height="26" rx="13" fill="#f5efff" stroke="#e9d5ff" stroke-width="2"/>
    <text x="128" y="198" text-anchor="middle" font-family="Avenir Next, Montserrat, Arial, sans-serif" font-size="13" font-weight="800" fill="#5b21b6">MA</text>
  </g>
  <path d="M58 62h22M62 58v22" stroke="#d8b4fe" stroke-width="7" stroke-linecap="round" opacity=".85"/>
  <circle cx="198" cy="196" r="7" fill="#8b5cf6" opacity=".58"/>
</svg>
