<svg xmlns="http://www.w3.org/2000/svg" viewBox="0 0 256 256" role="img" aria-label="Materials Science PHYS - mtrl-sci purple white icon">
  <defs>
    <linearGradient id="b" x1="0" y1="0" x2="1" y2="1"><stop stop-color="#fff"/><stop offset="1" stop-color="#eadcff"/></linearGradient>
    <linearGradient id="p" x1="44" y1="42" x2="214" y2="218"><stop stop-color="#c084fc"/><stop offset="1" stop-color="#5b21b6"/></linearGradient>
    <filter id="s"><feDropShadow dx="0" dy="10" stdDeviation="12" flood-color="#4c1d95" flood-opacity=".20"/></filter>
  </defs>
  <rect width="256" height="256" rx="56" fill="url(#b)"/>
  <circle cx="59" cy="191" r="28" fill="#d8b4fe" opacity=".30"/>
  <circle cx="214" cy="68" r="24" fill="#fff" opacity=".72"/>
  <g filter="url(#s)">
    <rect x="42" y="42" width="172" height="172" rx="40" fill="#fff"/>
    <path d="M66 65v18M66 157v18M65 72h18M173 72h18" stroke="#c084fc" stroke-width="7" stroke-linecap="round"/><path d="M84 65v18M84 157v18M65 90h18M173 90h18" stroke="#c084fc" stroke-width="7" stroke-linecap="round"/><path d="M102 65v18M102 157v18M65 108h18M173 108h18" stroke="#c084fc" stroke-width="7" stroke-linecap="round"/><path d="M120 65v18M120 157v18M65 126h18M173 126h18" stroke="#c084fc" stroke-width="7" stroke-linecap="round"/><path d="M138 65v18M138 157v18M65 144h18M173 144h18" stroke="#c084fc" stroke-width="7" stroke-linecap="round"/><rect x="78" y="78" width="100" height="92" rx="22" fill="#f7f0ff" stroke="url(#p)" stroke-width="10"/><path d="M103 112h50M103 136h32" stroke="#5b21b6" stroke-width="9" stroke-linecap="round"/><circle cx="152" cy="136" r="8" fill="#8b5cf6"/>
    <rect x="80" y="180" width="96" height="26" rx="13" fill="#f5efff" stroke="#e9d5ff" stroke-width="2"/>
    <text x="128" y="198" text-anchor="middle" font-family="Avenir Next, Montserrat, Arial, sans-serif" font-size="13" font-weight="800" fill="#5b21b6">mtrl-sci</text>
  </g>
  <path d="M58 62h22M62 58v22" stroke="#d8b4fe" stroke-width="7" stroke-linecap="round" opacity=".85"/>
  <circle cx="198" cy="196" r="7" fill="#8b5cf6" opacity=".58"/>
</svg>
