<svg xmlns="http://www.w3.org/2000/svg" viewBox="0 0 256 256" role="img" aria-label="Disordered Systems and Neural Networks PHYS - dis-nn purple white icon">
  <defs>
    <linearGradient id="b" x1="0" y1="0" x2="1" y2="1"><stop stop-color="#fff"/><stop offset="1" stop-color="#eadcff"/></linearGradient>
    <linearGradient id="p" x1="44" y1="42" x2="214" y2="218"><stop stop-color="#c084fc"/><stop offset="1" stop-color="#5b21b6"/></linearGradient>
    <filter id="s"><feDropShadow dx="0" dy="10" stdDeviation="12" flood-color="#4c1d95" flood-opacity=".20"/></filter>
  </defs>
  <rect width="256" height="256" rx="56" fill="url(#b)"/>
  <circle cx="37" cy="209" r="28" fill="#d8b4fe" opacity=".30"/>
  <circle cx="216" cy="64" r="24" fill="#fff" opacity=".72"/>
  <g filter="url(#s)">
    <rect x="42" y="42" width="172" height="172" rx="40" fill="#fff"/>
    <path d="M126 122L85 83" stroke="#a78bfa" stroke-width="8" stroke-linecap="round"/><path d="M126 122L178 84" stroke="#a78bfa" stroke-width="8" stroke-linecap="round"/><path d="M126 122L80 162" stroke="#a78bfa" stroke-width="8" stroke-linecap="round"/><path d="M126 122L179 162" stroke="#a78bfa" stroke-width="8" stroke-linecap="round"/><path d="M126 122L128 70" stroke="#a78bfa" stroke-width="8" stroke-linecap="round"/><circle cx="126" cy="122" r="25" fill="url(#p)"/><circle cx="85" cy="83" r="10" fill="#5b21b6"/><circle cx="178" cy="84" r="10" fill="#5b21b6"/><circle cx="80" cy="162" r="10" fill="#5b21b6"/><circle cx="179" cy="162" r="10" fill="#5b21b6"/><circle cx="128" cy="70" r="10" fill="#5b21b6"/>
    <rect x="80" y="180" width="96" height="26" rx="13" fill="#f5efff" stroke="#e9d5ff" stroke-width="2"/>
    <text x="128" y="198" text-anchor="middle" font-family="Avenir Next, Montserrat, Arial, sans-serif" font-size="13" font-weight="800" fill="#5b21b6">dis-nn</text>
  </g>
  <path d="M58 62h22M62 58v22" stroke="#d8b4fe" stroke-width="7" stroke-linecap="round" opacity=".85"/>
  <circle cx="198" cy="196" r="7" fill="#8b5cf6" opacity=".58"/>
</svg>
