<svg xmlns="http://www.w3.org/2000/svg" viewBox="0 0 256 256" role="img" aria-label="Statistical Finance Q-FIN - ST purple white icon">
  <defs>
    <linearGradient id="b" x1="0" y1="0" x2="1" y2="1"><stop stop-color="#fff"/><stop offset="1" stop-color="#eadcff"/></linearGradient>
    <linearGradient id="p" x1="44" y1="42" x2="214" y2="218"><stop stop-color="#c084fc"/><stop offset="1" stop-color="#5b21b6"/></linearGradient>
    <filter id="s"><feDropShadow dx="0" dy="10" stdDeviation="12" flood-color="#4c1d95" flood-opacity=".20"/></filter>
  </defs>
  <rect width="256" height="256" rx="56" fill="url(#b)"/>
  <circle cx="44" cy="218" r="28" fill="#d8b4fe" opacity=".30"/>
  <circle cx="201" cy="51" r="24" fill="#fff" opacity=".72"/>
  <g filter="url(#s)">
    <rect x="42" y="42" width="172" height="172" rx="40" fill="#fff"/>
    <path d="M76 160h110" stroke="#e9d5ff" stroke-width="10" stroke-linecap="round"/><path d="M78 148L96 91" stroke="url(#p)" stroke-width="9" stroke-linecap="round"/><path d="M96 91L132 118" stroke="url(#p)" stroke-width="9" stroke-linecap="round"/><path d="M132 118L163 82" stroke="url(#p)" stroke-width="9" stroke-linecap="round"/><path d="M163 82L178 151" stroke="url(#p)" stroke-width="9" stroke-linecap="round"/><circle cx="78" cy="148" r="10" fill="#5b21b6"/><circle cx="96" cy="91" r="10" fill="#5b21b6"/><circle cx="132" cy="118" r="10" fill="#5b21b6"/><circle cx="163" cy="82" r="10" fill="#5b21b6"/><circle cx="178" cy="151" r="10" fill="#5b21b6"/>
    <rect x="80" y="180" width="96" height="26" rx="13" fill="#f5efff" stroke="#e9d5ff" stroke-width="2"/>
    <text x="128" y="198" text-anchor="middle" font-family="Avenir Next, Montserrat, Arial, sans-serif" font-size="13" font-weight="800" fill="#5b21b6">ST</text>
  </g>
  <path d="M58 62h22M62 58v22" stroke="#d8b4fe" stroke-width="7" stroke-linecap="round" opacity=".85"/>
  <circle cx="198" cy="196" r="7" fill="#8b5cf6" opacity=".58"/>
</svg>
